<svg width="80" height="104" viewBox="0 0 80 104" fill="none" xmlns="http://www.w3.org/2000/svg">
<path d="M27.1 79.6L34.5 93.4C40.3 89.8 46 86 51.6 82L28.4 77.7C27 77.5 26.4 78.3 27.1 79.6Z" fill="url(#paint0_linear)"/>
<path d="M18.9 76C18.6 75.9 17.5 76.6 16.3 77.4L0.199996 89.4C-1.4 101.6 8.69999 108.5 22.3 100.5C24.9 99.1 27.5 97.6 30 96.1L20.6 78.4C19.9 77.1 19.1 76.1 18.9 76Z" fill="url(#paint1_linear)"/>
<path d="M64.9 41.4L55.4 48.4C54.3 49.2 54.1 50.8 55.2 51.8L71.1 67.7C81.1 60.3 82.4 50.2 75.9 41.8L69.5 40.4C68.1 40.1 66 40.5 64.9 41.4Z" fill="url(#paint2_linear)"/>
<path d="M51 54.9C50 53.9 48.2 53.8 47.1 54.6L26.1 70.2C25 71 25.2 72 26.6 72.2L57.5 77.9C60.7 75.6 63.8 73.2 66.9 70.8L51 54.9Z" fill="url(#paint3_linear)"/>
<path d="M57.7 37.8L39.2 33.8C37.8 33.5 37.5 34.1 38.5 35.1L47.8 44.4C48.8 45.4 50.6 45.5 51.7 44.7L58.1 39.9C59.3 39.1 59.1 38.1 57.7 37.8Z" fill="url(#paint4_linear)"/>
<path d="M21.3 25.2L1.80001 5.70001C-0.599995 9.70001 -0.699994 15.7 2.40001 22.5L20.5 26.4C22 26.8 22.3 26.2 21.3 25.2Z" fill="url(#paint5_linear)"/>
<path d="M15.1 68L6.6 52C6.6 57.4 6.2 62.9 5.5 68.2L13.8 69.7C15.1 70.1 15.7 69.2 15.1 68Z" fill="url(#paint6_linear)"/>
<path d="M35 29.6L61.2 35.3C62.6 35.6 64.7 35.2 65.8 34.3L66.7 33.6C52.4 22.7 38.1 12.8 22.3 4.1C15.5 0.0999992 9.5 -0.100001 5.5 2.1L30.6 27.2C31.6 28.2 33.6 29.3 35 29.6Z" fill="url(#paint7_linear)"/>
<path d="M8.89999 74.2L4.59999 73.4C4.09999 76 3.49999 78.6 2.79999 81.2L9.39999 76.3C10.5 75.3 10.3 74.4 8.89999 74.2Z" fill="url(#paint8_linear)"/>
<path d="M19.5 65.4C20.2 66.7 21.6 67 22.8 66.1L43.3 50.8C44.4 50 44.6 48.4 43.5 47.4L29.2 33.1C28.2 32.1 26.2 31 24.8 30.7L3.39999 26.1C4.49999 30.5 5.29999 35.1 5.79999 39.7L19.5 65.4Z" fill="url(#paint9_linear)"/>
<defs>
<linearGradient id="paint0_linear" x1="-9.4045" y1="18.1556" x2="45.2646" y2="90.7038" gradientUnits="userSpaceOnUse">
<stop stop-color="#00365A"/>
<stop offset="0.25" stop-color="#00365A"/>
<stop offset="0.5706" stop-color="#054E80"/>
<stop offset="0.7346" stop-color="#075B93"/>
<stop offset="0.8391" stop-color="#054E80"/>
<stop offset="1" stop-color="#054E80"/>
</linearGradient>
<linearGradient id="paint1_linear" x1="-28.6692" y1="35.6166" x2="23.7451" y2="105.173" gradientUnits="userSpaceOnUse">
<stop stop-color="#00365A"/>
<stop offset="0.25" stop-color="#00365A"/>
<stop offset="0.5706" stop-color="#054E80"/>
<stop offset="0.7346" stop-color="#075B93"/>
<stop offset="0.8391" stop-color="#054E80"/>
<stop offset="1" stop-color="#054E80"/>
</linearGradient>
<linearGradient id="paint2_linear" x1="28.8008" y1="-1.95519" x2="79.9776" y2="65.9587" gradientUnits="userSpaceOnUse">
<stop stop-color="#00365A"/>
<stop offset="0.25" stop-color="#00365A"/>
<stop offset="0.5706" stop-color="#054E80"/>
<stop offset="0.7346" stop-color="#075B93"/>
<stop offset="0.8391" stop-color="#054E80"/>
<stop offset="1" stop-color="#054E80"/>
</linearGradient>
<linearGradient id="paint3_linear" x1="3.41091" y1="14.4363" x2="55.4391" y2="83.48" gradientUnits="userSpaceOnUse">
<stop stop-color="#00365A"/>
<stop offset="0.25" stop-color="#00365A"/>
<stop offset="0.5706" stop-color="#054E80"/>
<stop offset="0.7346" stop-color="#075B93"/>
<stop offset="0.8391" stop-color="#054E80"/>
<stop offset="1" stop-color="#054E80"/>
</linearGradient>
<linearGradient id="paint4_linear" x1="21.303" y1="0.522222" x2="74.3738" y2="70.9495" gradientUnits="userSpaceOnUse">
<stop stop-color="#00365A"/>
<stop offset="0.25" stop-color="#00365A"/>
<stop offset="0.5706" stop-color="#054E80"/>
<stop offset="0.7346" stop-color="#075B93"/>
<stop offset="0.8391" stop-color="#054E80"/>
<stop offset="1" stop-color="#054E80"/>
</linearGradient>
<linearGradient id="paint5_linear" x1="4.09271" y1="13.5239" x2="56.6169" y2="83.2259" gradientUnits="userSpaceOnUse">
<stop stop-color="#00365A"/>
<stop offset="0.25" stop-color="#00365A"/>
<stop offset="0.5706" stop-color="#054E80"/>
<stop offset="0.7346" stop-color="#075B93"/>
<stop offset="0.8391" stop-color="#054E80"/>
<stop offset="1" stop-color="#054E80"/>
</linearGradient>
<linearGradient id="paint6_linear" x1="-17.6755" y1="28.7302" x2="33.9674" y2="97.2626" gradientUnits="userSpaceOnUse">
<stop stop-color="#00365A"/>
<stop offset="0.25" stop-color="#00365A"/>
<stop offset="0.5706" stop-color="#054E80"/>
<stop offset="0.7346" stop-color="#075B93"/>
<stop offset="0.8391" stop-color="#054E80"/>
<stop offset="1" stop-color="#054E80"/>
</linearGradient>
<linearGradient id="paint7_linear" x1="22.6647" y1="0.0704342" x2="76.1617" y2="71.0634" gradientUnits="userSpaceOnUse">
<stop stop-color="#00365A"/>
<stop offset="0.25" stop-color="#00365A"/>
<stop offset="0.5706" stop-color="#054E80"/>
<stop offset="0.7346" stop-color="#075B93"/>
<stop offset="0.8391" stop-color="#054E80"/>
<stop offset="1" stop-color="#054E80"/>
</linearGradient>
<linearGradient id="paint8_linear" x1="-25.1703" y1="36.0897" x2="24.4427" y2="101.929" gradientUnits="userSpaceOnUse">
<stop stop-color="#00365A"/>
<stop offset="0.25" stop-color="#00365A"/>
<stop offset="0.5706" stop-color="#054E80"/>
<stop offset="0.7346" stop-color="#075B93"/>
<stop offset="0.8391" stop-color="#054E80"/>
<stop offset="1" stop-color="#054E80"/>
</linearGradient>
<linearGradient id="paint9_linear" x1="0.644395" y1="15.4258" x2="52.4992" y2="84.2395" gradientUnits="userSpaceOnUse">
<stop stop-color="#00365A"/>
<stop offset="0.25" stop-color="#00365A"/>
<stop offset="0.5706" stop-color="#054E80"/>
<stop offset="0.7346" stop-color="#075B93"/>
<stop offset="0.8391" stop-color="#054E80"/>
<stop offset="1" stop-color="#054E80"/>
</linearGradient>
</defs>
</svg>
